<svg width="497" height="657" viewBox="0 0 497 657" fill="none" xmlns="http://www.w3.org/2000/svg">
<mask id="mask0" mask-type="alpha" maskUnits="userSpaceOnUse" x="0" y="0" width="497" height="657">
<path opacity="0.5" d="M0.0786133 0.79541H490.5C493.814 0.79541 496.5 3.4817 496.5 6.79541V650.205C496.5 653.518 493.814 656.205 490.5 656.205H0.0786133V0.79541Z" fill="#1F2F98"/>
</mask>
<g mask="url(#mask0)">
<circle cx="-173.754" cy="140.796" r="386.022" fill="url(#paint0_linear)"/>
<circle cx="-173.754" cy="140.796" r="386.022" fill="url(#paint1_linear)"/>
<circle cx="-173.754" cy="140.796" r="386.022" fill="url(#paint2_radial)"/>
<circle cx="93.6851" cy="90.7953" r="195.6" fill="url(#paint3_linear)"/>
<circle cx="93.6851" cy="90.7953" r="195.6" fill="url(#paint4_linear)"/>
<circle cx="93.6851" cy="90.7953" r="195.6" fill="url(#paint5_radial)"/>
<circle cx="359.065" cy="357.5" r="223.883" fill="url(#paint6_linear)"/>
<circle cx="359.065" cy="357.5" r="223.883" fill="url(#paint7_linear)"/>
<circle cx="359.065" cy="357.5" r="223.883" fill="url(#paint8_radial)"/>
<circle cx="88.7708" cy="465.792" r="312.208" fill="url(#paint9_linear)"/>
<circle cx="88.7708" cy="465.792" r="312.208" fill="url(#paint10_linear)"/>
<circle cx="88.7708" cy="465.792" r="312.208" fill="url(#paint11_radial)"/>
</g>
<defs>
<linearGradient id="paint0_linear" x1="-173.754" y1="-245.226" x2="-173.754" y2="526.817" gradientUnits="userSpaceOnUse">
<stop stop-color="#1CA7EC"/>
<stop offset="1" stop-color="#1F2F98"/>
</linearGradient>
<linearGradient id="paint1_linear" x1="-173.754" y1="-245.226" x2="-173.754" y2="526.817" gradientUnits="userSpaceOnUse">
<stop stop-color="#2D4B65"/>
<stop offset="1" stop-color="#4378A2"/>
</linearGradient>
<radialGradient id="paint2_radial" cx="0" cy="0" r="1" gradientUnits="userSpaceOnUse" gradientTransform="translate(208.535 526.817) rotate(-150.54) scale(592.557 879.004)">
<stop stop-color="#7BD5F5"/>
<stop offset="1" stop-color="#1F2F98"/>
</radialGradient>
<linearGradient id="paint3_linear" x1="93.6851" y1="-104.805" x2="93.6851" y2="286.396" gradientUnits="userSpaceOnUse">
<stop stop-color="#1CA7EC"/>
<stop offset="1" stop-color="#1F2F98"/>
</linearGradient>
<linearGradient id="paint4_linear" x1="93.6851" y1="-104.805" x2="93.6851" y2="286.396" gradientUnits="userSpaceOnUse">
<stop stop-color="#2D4B65"/>
<stop offset="1" stop-color="#4378A2"/>
</linearGradient>
<radialGradient id="paint5_radial" cx="0" cy="0" r="1" gradientUnits="userSpaceOnUse" gradientTransform="translate(287.394 286.396) rotate(-150.54) scale(300.254 445.399)">
<stop stop-color="#7BD5F5"/>
<stop offset="1" stop-color="#1F2F98"/>
</radialGradient>
<linearGradient id="paint6_linear" x1="359.065" y1="133.617" x2="359.065" y2="581.383" gradientUnits="userSpaceOnUse">
<stop stop-color="#1CA7EC"/>
<stop offset="1" stop-color="#1F2F98"/>
</linearGradient>
<linearGradient id="paint7_linear" x1="359.065" y1="133.617" x2="359.065" y2="581.383" gradientUnits="userSpaceOnUse">
<stop stop-color="#2D4B65"/>
<stop offset="1" stop-color="#4378A2"/>
</linearGradient>
<radialGradient id="paint8_radial" cx="0" cy="0" r="1" gradientUnits="userSpaceOnUse" gradientTransform="translate(738.245 155.554) rotate(153.677) scale(502.396 745.258)">
<stop stop-color="#7BD5F5"/>
<stop offset="1" stop-color="#1F2F98"/>
</radialGradient>
<linearGradient id="paint9_linear" x1="88.7708" y1="153.584" x2="88.7708" y2="778" gradientUnits="userSpaceOnUse">
<stop stop-color="#1CA7EC"/>
<stop offset="1" stop-color="#1F2F98"/>
</linearGradient>
<linearGradient id="paint10_linear" x1="88.7708" y1="153.584" x2="88.7708" y2="778" gradientUnits="userSpaceOnUse">
<stop stop-color="#2D4B65"/>
<stop offset="1" stop-color="#4378A2"/>
</linearGradient>
<radialGradient id="paint11_radial" cx="0" cy="0" r="1" gradientUnits="userSpaceOnUse" gradientTransform="translate(397.959 778) rotate(-150.54) scale(479.25 710.924)">
<stop stop-color="#7BD5F5"/>
<stop offset="1" stop-color="#1F2F98"/>
</radialGradient>
</defs>
</svg>
