<svg width="961" height="656" viewBox="0 0 961 656" fill="none" xmlns="http://www.w3.org/2000/svg">
<mask id="mask0" mask-type="alpha" maskUnits="userSpaceOnUse" x="0" y="0" width="961" height="656">
<path opacity="0.5" d="M0.5 6.29543C0.5 2.98172 3.18629 0.29541 6.5 0.29541H954.5C957.814 0.29541 960.5 2.9817 960.5 6.29541V649.705C960.5 653.018 957.814 655.705 954.5 655.705H6.50002C3.18631 655.705 0.5 653.018 0.5 649.705V6.29543Z" fill="#1F2F98"/>
</mask>
<g mask="url(#mask0)">
<circle cx="748.414" cy="436.902" r="202.4" fill="url(#paint0_linear)"/>
<circle cx="748.414" cy="436.902" r="202.4" fill="url(#paint1_linear)"/>
<circle cx="748.414" cy="436.902" r="202.4" fill="url(#paint2_radial)"/>
<circle r="126.794" transform="matrix(-1 0 0 1 164.827 221.5)" fill="url(#paint3_linear)"/>
<circle r="126.794" transform="matrix(-1 0 0 1 164.827 221.5)" fill="url(#paint4_linear)"/>
<circle r="126.794" transform="matrix(-1 0 0 1 164.827 221.5)" fill="url(#paint5_radial)"/>
</g>
<defs>
<linearGradient id="paint0_linear" x1="748.414" y1="234.501" x2="748.414" y2="639.302" gradientUnits="userSpaceOnUse">
<stop stop-color="#1CA7EC"/>
<stop offset="1" stop-color="#1F2F98"/>
</linearGradient>
<linearGradient id="paint1_linear" x1="748.414" y1="234.501" x2="748.414" y2="639.302" gradientUnits="userSpaceOnUse">
<stop stop-color="#2D4B65"/>
<stop offset="1" stop-color="#4378A2"/>
</linearGradient>
<radialGradient id="paint2_radial" cx="0" cy="0" r="1" gradientUnits="userSpaceOnUse" gradientTransform="translate(948.857 639.302) rotate(-150.54) scale(310.692 460.883)">
<stop stop-color="#7BD5F5"/>
<stop offset="1" stop-color="#1F2F98"/>
</radialGradient>
<linearGradient id="paint3_linear" x1="126.794" y1="0" x2="126.794" y2="253.588" gradientUnits="userSpaceOnUse">
<stop stop-color="#1CA7EC"/>
<stop offset="1" stop-color="#1F2F98"/>
</linearGradient>
<linearGradient id="paint4_linear" x1="126.794" y1="0" x2="126.794" y2="253.588" gradientUnits="userSpaceOnUse">
<stop stop-color="#2D4B65"/>
<stop offset="1" stop-color="#4378A2"/>
</linearGradient>
<radialGradient id="paint5_radial" cx="0" cy="0" r="1" gradientUnits="userSpaceOnUse" gradientTransform="translate(481.314 396.481) rotate(-141.941) scale(694.62 1030.4)">
<stop stop-color="#7BD5F5"/>
<stop offset="0.854061" stop-color="#1F2F98"/>
</radialGradient>
</defs>
</svg>
