<svg width="33" height="33" viewBox="0 0 33 33" fill="none" xmlns="http://www.w3.org/2000/svg">
<path d="M6.95061 15.753L13.5906 9.08638C13.8039 8.87305 14.0706 8.76638 14.3373 8.76638C14.6039 8.76638 14.8706 8.87305 15.0839 9.08638C15.5106 9.51305 15.5106 10.1797 15.0839 10.6064L10.2573 15.4597L25.8306 15.4597C26.4173 15.4597 26.8973 15.9397 26.8973 16.5264C26.8973 17.113 26.4173 17.593 25.8306 17.593L10.2573 17.593L15.0839 22.4464C15.5106 22.873 15.5106 23.5397 15.0839 23.9664C14.6573 24.393 13.9906 24.393 13.5639 23.9664L6.92394 17.2997C6.52394 16.8464 6.52395 16.153 6.95061 15.753Z" fill="white"/>
</svg>
