<svg width="136" height="101" viewBox="0 0 136 101" fill="none" xmlns="http://www.w3.org/2000/svg">
<path d="M123.014 31.1669C123.014 31.0836 123.014 30.9169 123.014 30.8336C123.014 30.7502 123.014 30.6669 123.014 30.5835C123.014 30.5002 122.93 30.417 122.93 30.2503C122.93 30.167 122.847 30.0003 122.847 29.9169C122.847 29.8336 122.764 29.7502 122.681 29.6669C122.597 29.5836 122.597 29.4169 122.514 29.3335V29.2502C122.43 29.1669 122.43 29.1669 122.347 29.0836C122.264 29.0003 122.18 28.9169 122.097 28.8336C122.014 28.7502 121.931 28.6669 121.847 28.6669C121.764 28.5836 121.68 28.5002 121.597 28.5002C121.514 28.4169 121.43 28.4169 121.347 28.3336C121.264 28.2502 121.18 28.2503 121.097 28.167C121.014 28.167 120.847 28.0835 120.764 28.0835C120.68 28.0835 120.597 28.0002 120.43 28.0002C120.347 28.0002 120.18 28.0002 120.097 28.0002C120.014 28.0002 119.93 28.0002 119.847 28.0002H49.847C49.7637 28.0002 49.6804 28.0002 49.5971 28.0002C49.5138 28.0002 49.3471 28.0002 49.2638 28.0002C49.1804 28.0002 49.0971 28.0835 48.9304 28.0835C48.8471 28.0835 48.6804 28.167 48.597 28.167C48.5137 28.167 48.4304 28.2502 48.3471 28.3336C48.2638 28.4169 48.1804 28.4169 48.0971 28.5002C48.0137 28.5835 47.9305 28.5836 47.8471 28.6669C47.7638 28.7503 47.6804 28.8336 47.5971 28.8336C47.5138 28.9169 47.4304 29.0003 47.347 29.0836C47.2637 29.1669 47.2638 29.1669 47.1804 29.2502V29.3335C47.0971 29.4169 47.0138 29.5836 47.0138 29.6669C46.9305 29.7502 46.9304 29.8336 46.8471 29.9169C46.7637 30.0003 46.7638 30.0836 46.7638 30.2503C46.7638 30.3336 46.6804 30.4169 46.6804 30.5835C46.6804 30.6669 46.6804 30.7502 46.6804 30.8336C46.6804 30.9169 46.6804 31.0836 46.6804 31.1669V31.2502V69.5836C46.6804 71.4169 48.1804 72.9169 50.0138 72.9169H120.014C121.847 72.9169 123.347 71.4169 123.347 69.5836L123.014 31.1669C123.014 31.1669 123.014 31.2503 123.014 31.1669ZM109.597 34.5836L84.6804 53.0835L59.7637 34.5836H109.597ZM53.0138 66.2503V37.9169L82.6804 59.9169C83.2637 60.3336 83.9304 60.5835 84.6804 60.5835C85.4304 60.5835 86.0971 60.3336 86.6804 59.9169L116.347 37.9169V66.2503H53.0138Z" fill="url(#paint0_linear)"/>
<path d="M12.071 31.5C10.4142 31.5 9.07104 32.8431 9.07104 34.5C9.07104 36.1569 10.4142 37.5 12.071 37.5V31.5ZM37.5576 37.5C39.2145 37.5 40.5576 36.1569 40.5576 34.5C40.5576 32.8431 39.2145 31.5 37.5576 31.5V37.5ZM12.071 37.5L37.5576 37.5V31.5L12.071 31.5V37.5Z" fill="#00DBCD"/>
<path d="M3.98633 47.5C2.32947 47.5 0.986328 48.8431 0.986328 50.5C0.986328 52.1569 2.32947 53.5 3.98633 53.5L3.98633 47.5ZM37.5578 53.5C39.2146 53.5 40.5578 52.1569 40.5578 50.5C40.5578 48.8431 39.2146 47.5 37.5578 47.5L37.5578 53.5ZM3.98633 53.5L37.5578 53.5L37.5578 47.5L3.98633 47.5L3.98633 53.5Z" fill="#00DBCD"/>
<path d="M14.6919 63.5C13.035 63.5 11.6919 64.8431 11.6919 66.5C11.6919 68.1569 13.035 69.5 14.6919 69.5L14.6919 63.5ZM37.5579 69.5C39.2148 69.5 40.5579 68.1569 40.5579 66.5C40.5579 64.8431 39.2148 63.5 37.5579 63.5L37.5579 69.5ZM14.6919 69.5L37.5579 69.5L37.5579 63.5L14.6919 63.5L14.6919 69.5Z" fill="#00DBCD"/>
<defs>
<linearGradient id="paint0_linear" x1="46.6804" y1="30.4707" x2="113.217" y2="85.2268" gradientUnits="userSpaceOnUse">
<stop stop-color="#00DBCD"/>
<stop offset="1" stop-color="#BEFFFB"/>
</linearGradient>
</defs>
</svg>
