<svg width="148" height="76" viewBox="0 0 148 76" fill="none" xmlns="http://www.w3.org/2000/svg">
<path fill-rule="evenodd" clip-rule="evenodd" d="M123.32 24.1667C123.32 22.5833 121.986 21.25 120.403 21.25H3.40299C1.81966 21.25 0.486328 22.5833 0.486328 24.1667V63.8333C0.486328 65.4167 1.81966 66.75 3.40299 66.75H120.403C121.986 66.75 123.32 65.4167 123.32 63.8333V24.1667ZM117.486 27.0833H6.31966V60.9167H117.486V27.0833Z" fill="#6DF0E8"/>
<path d="M22.5547 42.956C22.7147 42.812 22.9147 42.66 23.1547 42.5C23.3947 42.324 23.6347 42.156 23.8747 41.996C24.1307 41.82 24.3867 41.668 24.6427 41.54C24.8987 41.396 25.1227 41.292 25.3147 41.228L25.8907 41.036L26.8507 44.012L26.2747 44.204C26.0667 44.268 25.8267 44.316 25.5547 44.348C25.2827 44.38 24.9947 44.404 24.6907 44.42C24.3867 44.42 24.0907 44.42 23.8027 44.42C23.5147 44.42 23.2587 44.42 23.0347 44.42C23.2267 44.548 23.4347 44.7 23.6587 44.876C23.8987 45.036 24.1307 45.212 24.3547 45.404C24.5947 45.58 24.8187 45.764 25.0267 45.956C25.2347 46.148 25.4027 46.332 25.5307 46.508L25.9147 47.012L23.3707 48.812L23.0107 48.332C22.8827 48.172 22.7547 47.964 22.6267 47.708C22.5147 47.452 22.4027 47.188 22.2907 46.916C22.1787 46.628 22.0827 46.348 22.0027 46.076C21.9227 45.804 21.8507 45.556 21.7867 45.332C21.7227 45.556 21.6507 45.804 21.5707 46.076C21.4907 46.348 21.3947 46.628 21.2827 46.916C21.1707 47.188 21.0507 47.452 20.9227 47.708C20.8107 47.964 20.6907 48.172 20.5627 48.332L20.2027 48.812L17.6587 47.012L18.0427 46.508C18.1707 46.332 18.3387 46.148 18.5467 45.956C18.7547 45.764 18.9707 45.58 19.1947 45.404C19.4347 45.212 19.6667 45.036 19.8907 44.876C20.1307 44.7 20.3467 44.548 20.5387 44.42C20.3147 44.42 20.0587 44.42 19.7707 44.42C19.4827 44.42 19.1867 44.42 18.8827 44.42C18.5787 44.404 18.2907 44.38 18.0187 44.348C17.7467 44.316 17.5067 44.268 17.2987 44.204L16.7227 44.012L17.6827 41.036L18.2587 41.228C18.4507 41.292 18.6747 41.396 18.9307 41.54C19.1867 41.668 19.4347 41.82 19.6747 41.996C19.9307 42.156 20.1707 42.324 20.3947 42.5C20.6347 42.66 20.8427 42.812 21.0187 42.956C20.9387 42.748 20.8507 42.508 20.7547 42.236C20.6747 41.948 20.5947 41.66 20.5147 41.372C20.4347 41.084 20.3627 40.804 20.2987 40.532C20.2507 40.244 20.2267 39.996 20.2267 39.788V39.188H23.3467V39.788C23.3467 39.996 23.3147 40.244 23.2507 40.532C23.2027 40.804 23.1387 41.084 23.0587 41.372C22.9787 41.66 22.8907 41.948 22.7947 42.236C22.7147 42.508 22.6347 42.748 22.5547 42.956Z" fill="url(#paint0_linear)"/>
<path d="M34.6015 42.956C34.7615 42.812 34.9615 42.66 35.2015 42.5C35.4415 42.324 35.6815 42.156 35.9215 41.996C36.1775 41.82 36.4335 41.668 36.6895 41.54C36.9455 41.396 37.1695 41.292 37.3615 41.228L37.9375 41.036L38.8975 44.012L38.3215 44.204C38.1135 44.268 37.8735 44.316 37.6015 44.348C37.3295 44.38 37.0415 44.404 36.7375 44.42C36.4335 44.42 36.1375 44.42 35.8495 44.42C35.5615 44.42 35.3055 44.42 35.0815 44.42C35.2735 44.548 35.4815 44.7 35.7055 44.876C35.9455 45.036 36.1775 45.212 36.4015 45.404C36.6415 45.58 36.8655 45.764 37.0735 45.956C37.2815 46.148 37.4495 46.332 37.5775 46.508L37.9615 47.012L35.4175 48.812L35.0575 48.332C34.9295 48.172 34.8015 47.964 34.6735 47.708C34.5615 47.452 34.4495 47.188 34.3375 46.916C34.2255 46.628 34.1295 46.348 34.0495 46.076C33.9695 45.804 33.8975 45.556 33.8335 45.332C33.7695 45.556 33.6975 45.804 33.6175 46.076C33.5375 46.348 33.4415 46.628 33.3295 46.916C33.2175 47.188 33.0975 47.452 32.9695 47.708C32.8575 47.964 32.7375 48.172 32.6095 48.332L32.2495 48.812L29.7055 47.012L30.0895 46.508C30.2175 46.332 30.3855 46.148 30.5935 45.956C30.8015 45.764 31.0175 45.58 31.2415 45.404C31.4815 45.212 31.7135 45.036 31.9375 44.876C32.1775 44.7 32.3935 44.548 32.5855 44.42C32.3615 44.42 32.1055 44.42 31.8175 44.42C31.5295 44.42 31.2335 44.42 30.9295 44.42C30.6255 44.404 30.3375 44.38 30.0655 44.348C29.7935 44.316 29.5535 44.268 29.3455 44.204L28.7695 44.012L29.7295 41.036L30.3055 41.228C30.4975 41.292 30.7215 41.396 30.9775 41.54C31.2335 41.668 31.4815 41.82 31.7215 41.996C31.9775 42.156 32.2175 42.324 32.4415 42.5C32.6815 42.66 32.8895 42.812 33.0655 42.956C32.9855 42.748 32.8975 42.508 32.8015 42.236C32.7215 41.948 32.6415 41.66 32.5615 41.372C32.4815 41.084 32.4095 40.804 32.3455 40.532C32.2975 40.244 32.2735 39.996 32.2735 39.788V39.188H35.3935V39.788C35.3935 39.996 35.3615 40.244 35.2975 40.532C35.2495 40.804 35.1855 41.084 35.1055 41.372C35.0255 41.66 34.9375 41.948 34.8415 42.236C34.7615 42.508 34.6815 42.748 34.6015 42.956Z" fill="url(#paint1_linear)"/>
<path d="M46.6484 42.956C46.8084 42.812 47.0084 42.66 47.2484 42.5C47.4884 42.324 47.7284 42.156 47.9684 41.996C48.2244 41.82 48.4804 41.668 48.7364 41.54C48.9924 41.396 49.2164 41.292 49.4084 41.228L49.9844 41.036L50.9444 44.012L50.3684 44.204C50.1604 44.268 49.9204 44.316 49.6484 44.348C49.3764 44.38 49.0884 44.404 48.7844 44.42C48.4804 44.42 48.1844 44.42 47.8964 44.42C47.6084 44.42 47.3524 44.42 47.1284 44.42C47.3204 44.548 47.5284 44.7 47.7524 44.876C47.9924 45.036 48.2244 45.212 48.4484 45.404C48.6884 45.58 48.9124 45.764 49.1204 45.956C49.3284 46.148 49.4964 46.332 49.6244 46.508L50.0084 47.012L47.4644 48.812L47.1044 48.332C46.9764 48.172 46.8484 47.964 46.7204 47.708C46.6084 47.452 46.4964 47.188 46.3844 46.916C46.2724 46.628 46.1764 46.348 46.0964 46.076C46.0164 45.804 45.9444 45.556 45.8804 45.332C45.8164 45.556 45.7444 45.804 45.6644 46.076C45.5844 46.348 45.4884 46.628 45.3764 46.916C45.2644 47.188 45.1444 47.452 45.0164 47.708C44.9044 47.964 44.7844 48.172 44.6564 48.332L44.2964 48.812L41.7524 47.012L42.1364 46.508C42.2644 46.332 42.4324 46.148 42.6404 45.956C42.8484 45.764 43.0644 45.58 43.2884 45.404C43.5284 45.212 43.7604 45.036 43.9844 44.876C44.2244 44.7 44.4404 44.548 44.6324 44.42C44.4084 44.42 44.1524 44.42 43.8644 44.42C43.5764 44.42 43.2804 44.42 42.9764 44.42C42.6724 44.404 42.3844 44.38 42.1124 44.348C41.8404 44.316 41.6004 44.268 41.3924 44.204L40.8164 44.012L41.7764 41.036L42.3524 41.228C42.5444 41.292 42.7684 41.396 43.0244 41.54C43.2804 41.668 43.5284 41.82 43.7684 41.996C44.0244 42.156 44.2644 42.324 44.4884 42.5C44.7284 42.66 44.9364 42.812 45.1124 42.956C45.0324 42.748 44.9444 42.508 44.8484 42.236C44.7684 41.948 44.6884 41.66 44.6084 41.372C44.5284 41.084 44.4564 40.804 44.3924 40.532C44.3444 40.244 44.3204 39.996 44.3204 39.788V39.188H47.4404V39.788C47.4404 39.996 47.4084 40.244 47.3444 40.532C47.2964 40.804 47.2324 41.084 47.1524 41.372C47.0724 41.66 46.9844 41.948 46.8884 42.236C46.8084 42.508 46.7284 42.748 46.6484 42.956Z" fill="url(#paint2_linear)"/>
<path d="M58.6953 42.956C58.8553 42.812 59.0553 42.66 59.2953 42.5C59.5353 42.324 59.7753 42.156 60.0153 41.996C60.2713 41.82 60.5273 41.668 60.7833 41.54C61.0393 41.396 61.2633 41.292 61.4553 41.228L62.0313 41.036L62.9913 44.012L62.4153 44.204C62.2073 44.268 61.9673 44.316 61.6953 44.348C61.4233 44.38 61.1353 44.404 60.8313 44.42C60.5273 44.42 60.2313 44.42 59.9433 44.42C59.6553 44.42 59.3993 44.42 59.1753 44.42C59.3673 44.548 59.5753 44.7 59.7993 44.876C60.0393 45.036 60.2713 45.212 60.4953 45.404C60.7353 45.58 60.9593 45.764 61.1673 45.956C61.3753 46.148 61.5433 46.332 61.6713 46.508L62.0553 47.012L59.5113 48.812L59.1513 48.332C59.0233 48.172 58.8953 47.964 58.7673 47.708C58.6553 47.452 58.5433 47.188 58.4313 46.916C58.3193 46.628 58.2233 46.348 58.1433 46.076C58.0633 45.804 57.9913 45.556 57.9273 45.332C57.8633 45.556 57.7913 45.804 57.7113 46.076C57.6313 46.348 57.5353 46.628 57.4233 46.916C57.3113 47.188 57.1913 47.452 57.0633 47.708C56.9513 47.964 56.8313 48.172 56.7033 48.332L56.3433 48.812L53.7993 47.012L54.1833 46.508C54.3113 46.332 54.4793 46.148 54.6873 45.956C54.8953 45.764 55.1113 45.58 55.3353 45.404C55.5753 45.212 55.8073 45.036 56.0313 44.876C56.2713 44.7 56.4873 44.548 56.6793 44.42C56.4553 44.42 56.1993 44.42 55.9113 44.42C55.6233 44.42 55.3273 44.42 55.0233 44.42C54.7193 44.404 54.4313 44.38 54.1593 44.348C53.8873 44.316 53.6473 44.268 53.4393 44.204L52.8633 44.012L53.8233 41.036L54.3993 41.228C54.5913 41.292 54.8153 41.396 55.0713 41.54C55.3273 41.668 55.5753 41.82 55.8153 41.996C56.0713 42.156 56.3113 42.324 56.5353 42.5C56.7753 42.66 56.9833 42.812 57.1593 42.956C57.0793 42.748 56.9913 42.508 56.8953 42.236C56.8153 41.948 56.7353 41.66 56.6553 41.372C56.5753 41.084 56.5033 40.804 56.4393 40.532C56.3913 40.244 56.3673 39.996 56.3673 39.788V39.188H59.4873V39.788C59.4873 39.996 59.4553 40.244 59.3913 40.532C59.3433 40.804 59.2793 41.084 59.1993 41.372C59.1193 41.66 59.0313 41.948 58.9353 42.236C58.8553 42.508 58.7753 42.748 58.6953 42.956Z" fill="url(#paint3_linear)"/>
<path d="M70.7422 42.956C70.9022 42.812 71.1022 42.66 71.3422 42.5C71.5822 42.324 71.8222 42.156 72.0622 41.996C72.3182 41.82 72.5742 41.668 72.8302 41.54C73.0862 41.396 73.3102 41.292 73.5022 41.228L74.0782 41.036L75.0382 44.012L74.4622 44.204C74.2542 44.268 74.0142 44.316 73.7422 44.348C73.4702 44.38 73.1822 44.404 72.8782 44.42C72.5742 44.42 72.2782 44.42 71.9902 44.42C71.7022 44.42 71.4462 44.42 71.2222 44.42C71.4142 44.548 71.6222 44.7 71.8462 44.876C72.0862 45.036 72.3182 45.212 72.5422 45.404C72.7822 45.58 73.0062 45.764 73.2142 45.956C73.4222 46.148 73.5902 46.332 73.7182 46.508L74.1022 47.012L71.5582 48.812L71.1982 48.332C71.0702 48.172 70.9422 47.964 70.8142 47.708C70.7022 47.452 70.5902 47.188 70.4782 46.916C70.3662 46.628 70.2702 46.348 70.1902 46.076C70.1102 45.804 70.0382 45.556 69.9742 45.332C69.9102 45.556 69.8382 45.804 69.7582 46.076C69.6782 46.348 69.5822 46.628 69.4702 46.916C69.3582 47.188 69.2382 47.452 69.1102 47.708C68.9982 47.964 68.8782 48.172 68.7502 48.332L68.3902 48.812L65.8462 47.012L66.2302 46.508C66.3582 46.332 66.5262 46.148 66.7342 45.956C66.9422 45.764 67.1582 45.58 67.3822 45.404C67.6222 45.212 67.8542 45.036 68.0782 44.876C68.3182 44.7 68.5342 44.548 68.7262 44.42C68.5022 44.42 68.2462 44.42 67.9582 44.42C67.6702 44.42 67.3742 44.42 67.0702 44.42C66.7662 44.404 66.4782 44.38 66.2062 44.348C65.9342 44.316 65.6942 44.268 65.4862 44.204L64.9102 44.012L65.8702 41.036L66.4462 41.228C66.6382 41.292 66.8622 41.396 67.1182 41.54C67.3742 41.668 67.6222 41.82 67.8622 41.996C68.1182 42.156 68.3582 42.324 68.5822 42.5C68.8222 42.66 69.0302 42.812 69.2062 42.956C69.1262 42.748 69.0382 42.508 68.9422 42.236C68.8622 41.948 68.7822 41.66 68.7022 41.372C68.6222 41.084 68.5502 40.804 68.4862 40.532C68.4382 40.244 68.4142 39.996 68.4142 39.788V39.188H71.5342V39.788C71.5342 39.996 71.5022 40.244 71.4382 40.532C71.3902 40.804 71.3262 41.084 71.2462 41.372C71.1662 41.66 71.0782 41.948 70.9822 42.236C70.9022 42.508 70.8222 42.748 70.7422 42.956Z" fill="url(#paint4_linear)"/>
<path d="M82.789 42.956C82.949 42.812 83.149 42.66 83.389 42.5C83.629 42.324 83.869 42.156 84.109 41.996C84.365 41.82 84.621 41.668 84.877 41.54C85.133 41.396 85.357 41.292 85.549 41.228L86.125 41.036L87.085 44.012L86.509 44.204C86.301 44.268 86.061 44.316 85.789 44.348C85.517 44.38 85.229 44.404 84.925 44.42C84.621 44.42 84.325 44.42 84.037 44.42C83.749 44.42 83.493 44.42 83.269 44.42C83.461 44.548 83.669 44.7 83.893 44.876C84.133 45.036 84.365 45.212 84.589 45.404C84.829 45.58 85.053 45.764 85.261 45.956C85.469 46.148 85.637 46.332 85.765 46.508L86.149 47.012L83.605 48.812L83.245 48.332C83.117 48.172 82.989 47.964 82.861 47.708C82.749 47.452 82.637 47.188 82.525 46.916C82.413 46.628 82.317 46.348 82.237 46.076C82.157 45.804 82.085 45.556 82.021 45.332C81.957 45.556 81.885 45.804 81.805 46.076C81.725 46.348 81.629 46.628 81.517 46.916C81.405 47.188 81.285 47.452 81.157 47.708C81.045 47.964 80.925 48.172 80.797 48.332L80.437 48.812L77.893 47.012L78.277 46.508C78.405 46.332 78.573 46.148 78.781 45.956C78.989 45.764 79.205 45.58 79.429 45.404C79.669 45.212 79.901 45.036 80.125 44.876C80.365 44.7 80.581 44.548 80.773 44.42C80.549 44.42 80.293 44.42 80.005 44.42C79.717 44.42 79.421 44.42 79.117 44.42C78.813 44.404 78.525 44.38 78.253 44.348C77.981 44.316 77.741 44.268 77.533 44.204L76.957 44.012L77.917 41.036L78.493 41.228C78.685 41.292 78.909 41.396 79.165 41.54C79.421 41.668 79.669 41.82 79.909 41.996C80.165 42.156 80.405 42.324 80.629 42.5C80.869 42.66 81.077 42.812 81.253 42.956C81.173 42.748 81.085 42.508 80.989 42.236C80.909 41.948 80.829 41.66 80.749 41.372C80.669 41.084 80.597 40.804 80.533 40.532C80.485 40.244 80.461 39.996 80.461 39.788V39.188H83.581V39.788C83.581 39.996 83.549 40.244 83.485 40.532C83.437 40.804 83.373 41.084 83.293 41.372C83.213 41.66 83.125 41.948 83.029 42.236C82.949 42.508 82.869 42.748 82.789 42.956Z" fill="url(#paint5_linear)"/>
<path d="M87.292 65.3921C86.0299 65.3921 84.8728 64.9681 83.9263 64.0142L62.9961 42.9216C61.1029 41.0138 61.1029 38.046 62.9961 36.1381C64.8893 34.2303 67.8341 34.2303 69.7273 36.1381L87.3972 53.8389L129.363 11.6538C131.256 9.74593 134.201 9.74593 136.094 11.6538C137.988 13.5617 137.988 16.5295 136.094 18.4374L90.7628 64.0142C89.711 64.9681 88.5541 65.3921 87.292 65.3921Z" fill="url(#paint6_linear)"/>
<path fill-rule="evenodd" clip-rule="evenodd" d="M76.8279 71.0579L55.8977 49.9653C50.1356 44.1586 50.1356 34.9012 55.8978 29.0944C61.698 23.2492 71.0071 23.2448 76.8126 29.0813C76.817 29.0857 76.8213 29.0901 76.8256 29.0944L87.3849 39.6721L122.265 4.61009C122.267 4.60804 122.269 4.60599 122.271 4.60395C122.272 4.60302 122.273 4.6021 122.273 4.60118C128.079 -1.23949 137.391 -1.23653 143.193 4.61009C148.955 10.4169 148.955 19.6743 143.193 25.4811L143.184 25.4893L97.6715 71.2486L97.4809 71.4214C94.6211 74.0152 91.0802 75.3921 87.292 75.3921C83.5925 75.3921 79.8069 74.06 76.8279 71.0579ZM129.363 11.6538L87.3972 53.8389L69.7795 36.1904L69.7273 36.1381C67.8341 34.2303 64.8893 34.2303 62.9961 36.1381C61.1202 38.0285 61.103 40.9594 62.9444 42.8688C62.951 42.8757 62.9577 42.8825 62.9643 42.8893C62.9748 42.9001 62.9854 42.9109 62.9961 42.9216L83.9263 64.0142C84.8728 64.9681 86.0299 65.3921 87.292 65.3921C88.5541 65.3921 89.711 64.9681 90.7628 64.0142L136.094 18.4374C136.109 18.4227 136.123 18.408 136.138 18.3932C136.14 18.3904 136.143 18.3875 136.146 18.3846C137.987 16.4751 137.97 13.5442 136.094 11.6538C134.201 9.74593 131.256 9.74593 129.363 11.6538Z" fill="#203099"/>
<defs>
<linearGradient id="paint0_linear" x1="16.7227" y1="39.7173" x2="24.3514" y2="66.6087" gradientUnits="userSpaceOnUse">
<stop stop-color="#00DBCD"/>
<stop offset="1" stop-color="#BEFFFB"/>
</linearGradient>
<linearGradient id="paint1_linear" x1="16.7227" y1="39.7173" x2="24.3514" y2="66.6087" gradientUnits="userSpaceOnUse">
<stop stop-color="#00DBCD"/>
<stop offset="1" stop-color="#BEFFFB"/>
</linearGradient>
<linearGradient id="paint2_linear" x1="16.7227" y1="39.7173" x2="24.3514" y2="66.6087" gradientUnits="userSpaceOnUse">
<stop stop-color="#00DBCD"/>
<stop offset="1" stop-color="#BEFFFB"/>
</linearGradient>
<linearGradient id="paint3_linear" x1="16.7227" y1="39.7173" x2="24.3514" y2="66.6087" gradientUnits="userSpaceOnUse">
<stop stop-color="#00DBCD"/>
<stop offset="1" stop-color="#BEFFFB"/>
</linearGradient>
<linearGradient id="paint4_linear" x1="16.7227" y1="39.7173" x2="24.3514" y2="66.6087" gradientUnits="userSpaceOnUse">
<stop stop-color="#00DBCD"/>
<stop offset="1" stop-color="#BEFFFB"/>
</linearGradient>
<linearGradient id="paint5_linear" x1="16.7227" y1="39.7173" x2="24.3514" y2="66.6087" gradientUnits="userSpaceOnUse">
<stop stop-color="#00DBCD"/>
<stop offset="1" stop-color="#BEFFFB"/>
</linearGradient>
<linearGradient id="paint6_linear" x1="61.5762" y1="13.2572" x2="138.315" y2="64.185" gradientUnits="userSpaceOnUse">
<stop stop-color="#00DBCD"/>
<stop offset="1" stop-color="#BEFFFB"/>
</linearGradient>
</defs>
</svg>
